<svg xmlns="http://www.w3.org/2000/svg" xmlns:xlink="http://www.w3.org/1999/xlink" width="121.673" height="23.276" viewBox="0 0 121.673 23.276">
  <defs>
    <clipPath id="clip-path">
      <path id="패스_8" data-name="패스 8" d="M391.026,227.478q-.709-.161-1.46-.261a17.652,17.652,0,0,0-4.178-.082h0a17.182,17.182,0,0,0-9.673,4.176,16.111,16.111,0,0,0-1.831,1.907c-.176.219-.349.445-.513.672a19.063,19.063,0,0,1-13.149,6.868,20.048,20.048,0,0,1-4.456-.113,19.378,19.378,0,0,1-7.2-2.482s-.007,0-.009,0a18.289,18.289,0,0,1-4.884-4.17c-.088-.109-.407-.409-.494-.52a11.11,11.11,0,0,0-2.618-1.957h-.008c-.027,0-.045,0-.065.009a24.652,24.652,0,0,0,4.484,8.7c.3.371.6.731.917,1.086.3.338.616.667.938.992a27.371,27.371,0,0,0,15.771,7.758,28.58,28.58,0,0,0,9.7-.32,26.579,26.579,0,0,0,18.978-14.8,7.551,7.551,0,0,0,.642-1.578,23.946,23.946,0,0,0,1.186-4.574c.034-.224.066-.447.095-.67A17.355,17.355,0,0,0,391.026,227.478Z" transform="translate(-340.483 -227.049)" fill="none"/>
    </clipPath>
    <linearGradient id="linear-gradient" x1="-8.104" y1="0.377" x2="-7.104" y2="0.377" gradientUnits="objectBoundingBox">
      <stop offset="0" stop-color="#ffeb07"/>
      <stop offset="0.021" stop-color="#ffe105"/>
      <stop offset="0.078" stop-color="#ffcf02"/>
      <stop offset="0.136" stop-color="#ffc300"/>
      <stop offset="0.198" stop-color="#ffc000"/>
      <stop offset="0.498" stop-color="#f07b23"/>
      <stop offset="0.751" stop-color="#e34d1e"/>
      <stop offset="0.945" stop-color="#db1e1f"/>
    </linearGradient>
    <linearGradient id="linear-gradient-2" x1="-7.795" y1="0.825" x2="-7.45" y2="-0.529" gradientUnits="objectBoundingBox">
      <stop offset="0" stop-color="#e23423"/>
      <stop offset="0.209" stop-color="#df2d25"/>
      <stop offset="0.492" stop-color="#d91c2b"/>
      <stop offset="0.816" stop-color="#d00036"/>
      <stop offset="0.821" stop-color="#d00037"/>
    </linearGradient>
    <linearGradient id="linear-gradient-3" x1="-8.526" y1="0.339" x2="-9.526" y2="0.339" gradientUnits="objectBoundingBox">
      <stop offset="0.118" stop-color="#e43e00"/>
      <stop offset="0.161" stop-color="#e64700"/>
      <stop offset="0.39" stop-color="#f07300"/>
      <stop offset="0.594" stop-color="#f89400"/>
      <stop offset="0.765" stop-color="#fda700"/>
      <stop offset="0.881" stop-color="#ffaf00"/>
    </linearGradient>
    <linearGradient id="linear-gradient-4" x1="-16.794" y1="0.949" x2="-15.838" y2="-0.769" gradientUnits="objectBoundingBox">
      <stop offset="0" stop-color="#ffda2d"/>
      <stop offset="0.786" stop-color="#f89600"/>
    </linearGradient>
  </defs>
  <g id="그룹_323" data-name="그룹 323" transform="translate(-340.483 -227.049)">
    <g id="그룹_2" data-name="그룹 2" transform="translate(400.978 227.764)">
      <g id="그룹_1" data-name="그룹 1">
        <path id="패스_1" data-name="패스 1" d="M437.367,238.785H418.208a.28.28,0,0,1-.306-.313v-1.459a.326.326,0,0,1,.306-.338h19.159a.384.384,0,0,1,.336.338v1.459A.355.355,0,0,1,437.367,238.785Zm-16.759-3.344c-.285.047-.458-.039-.527-.244l-.352-1.235a.382.382,0,0,1,.264-.447,37.139,37.139,0,0,0,9.154-2.83c.369-.2.631-.384.024-.384h-7.659c-.2,0-.285-.109-.285-.313v-1.437c0-.184.088-.264.285-.264h10.293c1.149,0,1.962.33,1.962,1.051a2.215,2.215,0,0,1-.813,1.435,10.221,10.221,0,0,1-2.206,1.483c1.524.356,3.654.718,5.174.966a.306.306,0,0,1,.26.449l-.42,1.171a.38.38,0,0,1-.455.291,59.391,59.391,0,0,1-7.375-1.666A45.256,45.256,0,0,1,420.608,235.44Zm14.277,13.833H422.5c-1.149,0-1.48-.383-1.48-1.345v-2.743c0-.967.316-1.367,1.453-1.367h9.444c.238,0,.279-.026.279-.27V242.7c0-.251-.015-.271-.279-.271H421.286a.291.291,0,0,1-.3-.264v-1.51a.332.332,0,0,1,.3-.319h11.886c1.208,0,1.494.341,1.494,1.353v2.708c0,1.063-.286,1.335-1.494,1.335h-9.4c-.244,0-.267.042-.267.291v.9c0,.265.023.265.287.265h11.072a.319.319,0,0,1,.324.314v1.46A.371.371,0,0,1,434.885,249.273Z" transform="translate(-417.902 -228.034)" fill="#fff"/>
        <path id="패스_2" data-name="패스 2" d="M455.812,231.334c-.506,5.832-3.7,10.233-8.884,13.353a.489.489,0,0,1-.707-.132l-.767-1.189a.384.384,0,0,1,.148-.606c4.377-2.63,6.847-6.108,7.618-10.22.152-.6-.045-.738-.569-.738h-6.125c-.2,0-.283-.112-.283-.318v-1.568c0-.181.088-.268.283-.268h7.73C455.578,229.648,455.9,230.186,455.812,231.334Zm6.34,17.939H460.21a.268.268,0,0,1-.306-.295V237.913h-4.046a.3.3,0,0,1-.309-.269v-1.6a.292.292,0,0,1,.309-.27H459.9v-7.527c0-.2.114-.287.306-.287h1.942c.192,0,.3.089.3.287v20.727A.267.267,0,0,1,462.152,249.273Z" transform="translate(-423.906 -227.964)" fill="#fff"/>
        <path id="패스_3" data-name="패스 3" d="M490.325,240.4h-8.144v4.1a.279.279,0,0,1-.3.318h-1.914a.279.279,0,0,1-.306-.318v-4.1h-8.5a.361.361,0,0,1-.307-.357v-1.46a.322.322,0,0,1,.307-.34h19.168a.385.385,0,0,1,.33.34v1.46A.409.409,0,0,1,490.325,240.4Zm-9.525-3.8c-4.117,0-7-1.528-7-4.11s2.88-4.127,7-4.127c4.092,0,6.974,1.53,6.974,4.127S484.892,236.6,480.8,236.6Zm7.128,12.216H475.474c-1.324,0-1.671-.426-1.671-1.592v-4.763a.332.332,0,0,1,.308-.31H476a.339.339,0,0,1,.33.31V246.3c0,.287.112.358.4.358h11.2a.319.319,0,0,1,.328.273v1.617C488.256,248.73,488.1,248.817,487.927,248.817ZM480.8,230.431c-2.551,0-4.356.876-4.356,2.06,0,1.215,1.805,2.048,4.356,2.048,2.531,0,4.331-.833,4.331-2.048C485.131,231.307,483.33,230.431,480.8,230.431Z" transform="translate(-429.477 -228.051)" fill="#fff"/>
      </g>
    </g>
    <g id="그룹_6" data-name="그룹 6" transform="translate(340.483 227.049)">
      <g id="그룹_5" data-name="그룹 5">
        <g id="그룹_4" data-name="그룹 4">
          <g id="그룹_3" data-name="그룹 3" clip-path="url(#clip-path)">
            <path id="패스_4" data-name="패스 4" d="M391.026,227.478q-.709-.161-1.46-.261a17.652,17.652,0,0,0-4.178-.082h0a17.182,17.182,0,0,0-9.673,4.176,16.111,16.111,0,0,0-1.831,1.907c-.176.219-.349.445-.513.672a19.063,19.063,0,0,1-13.149,6.868,20.048,20.048,0,0,1-4.456-.113,19.378,19.378,0,0,1-7.2-2.482s-.007,0-.009,0a18.289,18.289,0,0,1-4.884-4.17c-.088-.109-.407-.409-.494-.52a11.11,11.11,0,0,0-2.618-1.957h-.008c-.027,0-.045,0-.065.009a24.652,24.652,0,0,0,4.484,8.7c.3.371.6.731.917,1.086.3.338.616.667.938.992a27.371,27.371,0,0,0,15.771,7.758,28.58,28.58,0,0,0,9.7-.32,26.579,26.579,0,0,0,18.978-14.8,7.551,7.551,0,0,0,.642-1.578,23.946,23.946,0,0,0,1.186-4.574c.034-.224.066-.447.095-.67A17.355,17.355,0,0,0,391.026,227.478Z" transform="translate(-340.483 -227.049)" fill="url(#linear-gradient)"/>
            <path id="패스_5" data-name="패스 5" d="M391.026,227.478q-.709-.161-1.46-.261a17.652,17.652,0,0,0-4.178-.082c-2.118,10.168-11.67,17.842-23.136,17.842a23.646,23.646,0,0,1-21.7-13.467c-.027,0-.045,0-.065.009a24.652,24.652,0,0,0,4.484,8.7c.3.371.6.731.917,1.086.3.338.616.667.938.992a27.371,27.371,0,0,0,15.771,7.758,28.58,28.58,0,0,0,9.7-.32,26.579,26.579,0,0,0,18.978-14.8,7.551,7.551,0,0,0,.642-1.578,23.946,23.946,0,0,0,1.186-4.574c.034-.224.066-.447.095-.67A17.355,17.355,0,0,0,391.026,227.478Z" transform="translate(-340.483 -227.049)" fill="url(#linear-gradient-2)"/>
            <path id="패스_6" data-name="패스 6" d="M362.271,245c11.465,0,21.017-7.675,23.136-17.842h0a22.1,22.1,0,0,1-20.914,14.006,23.75,23.75,0,0,1-4.252-.384,20.047,20.047,0,0,1-4.456-.113,19.378,19.378,0,0,1-7.2-2.482s-.007,0-.009,0a18.289,18.289,0,0,1-4.884-4.17c-.088-.109-.407-.409-.494-.52a11.108,11.108,0,0,0-2.618-1.957h-.008A23.647,23.647,0,0,0,362.271,245Z" transform="translate(-340.501 -227.073)" fill="url(#linear-gradient-3)"/>
            <path id="패스_7" data-name="패스 7" d="M379.4,233.241c-.176.219-.349.445-.513.672a19.063,19.063,0,0,1-13.149,6.868,23.75,23.75,0,0,0,4.252.384A22.1,22.1,0,0,0,390.9,227.159a17.182,17.182,0,0,0-9.671,4.176A16.111,16.111,0,0,0,379.4,233.241Z" transform="translate(-346.004 -227.073)" fill="url(#linear-gradient-4)"/>
          </g>
        </g>
      </g>
    </g>
  </g>
</svg>
