<svg width="122" height="24" viewBox="0 0 122 24" fill="none" xmlns="http://www.w3.org/2000/svg">
<g clip-path="url(#clip0_1_40)">
<path d="M79.96 11.466H60.801C60.7591 11.4702 60.7169 11.465 60.6774 11.4506C60.6378 11.4363 60.602 11.4132 60.5726 11.3832C60.5433 11.3531 60.521 11.3168 60.5076 11.2769C60.4941 11.2371 60.4898 11.1947 60.495 11.153V9.69401C60.4917 9.60885 60.5219 9.52578 60.5791 9.46261C60.6363 9.39943 60.7159 9.36117 60.801 9.35601H79.96C80.0459 9.36627 80.1258 9.40523 80.1868 9.46658C80.2477 9.52792 80.2862 9.60806 80.296 9.69401V11.153C80.2861 11.2365 80.2469 11.3138 80.1854 11.3711C80.1238 11.4285 80.044 11.4621 79.96 11.466ZM63.201 8.122C62.916 8.169 62.743 8.08301 62.674 7.87801L62.322 6.64301C62.3016 6.54895 62.3174 6.45065 62.3664 6.36777C62.4153 6.2849 62.4938 6.22355 62.586 6.19601C65.7467 5.65189 68.8236 4.70064 71.74 3.366C72.109 3.166 72.371 2.982 71.764 2.982H64.105C63.905 2.982 63.82 2.87301 63.82 2.66901V1.232C63.82 1.048 63.908 0.96801 64.105 0.96801H74.398C75.547 0.96801 76.36 1.298 76.36 2.019C76.2838 2.58416 75.9926 3.09816 75.547 3.454C74.8793 4.04225 74.1377 4.5408 73.341 4.937C74.865 5.293 76.995 5.65501 78.515 5.90301C78.5668 5.90478 78.6174 5.9197 78.6619 5.94637C78.7063 5.97305 78.7433 6.01059 78.7693 6.05549C78.7953 6.10038 78.8095 6.15116 78.8105 6.20303C78.8115 6.2549 78.7993 6.30616 78.775 6.35201L78.355 7.523C78.3444 7.57211 78.3243 7.61864 78.2956 7.6599C78.267 7.70117 78.2305 7.73634 78.1882 7.7634C78.1458 7.79047 78.0986 7.80887 78.0492 7.81756C77.9997 7.82624 77.949 7.82503 77.9 7.814C75.4088 7.41587 72.9454 6.85941 70.525 6.148C68.1432 7.00946 65.6932 7.67044 63.201 8.122ZM77.478 21.955H65.093C63.944 21.955 63.613 21.572 63.613 20.61V17.867C63.613 16.9 63.929 16.5 65.066 16.5H74.51C74.748 16.5 74.789 16.474 74.789 16.23V15.381C74.789 15.13 74.774 15.11 74.51 15.11H63.879C63.8047 15.1126 63.7323 15.0867 63.6765 15.0377C63.6207 14.9886 63.5858 14.92 63.579 14.846V13.336C63.5818 13.2555 63.6137 13.1787 63.6689 13.12C63.7241 13.0613 63.7988 13.0247 63.879 13.017H75.765C76.973 13.017 77.259 13.358 77.259 14.37V17.078C77.259 18.141 76.973 18.413 75.765 18.413H66.365C66.121 18.413 66.098 18.455 66.098 18.704V19.604C66.098 19.869 66.121 19.869 66.385 19.869H77.457C77.4989 19.8683 77.5405 19.8759 77.5794 19.8914C77.6184 19.9068 77.6539 19.9297 77.684 19.9589C77.7141 19.9881 77.7381 20.0228 77.7548 20.0613C77.7714 20.0998 77.7803 20.1411 77.781 20.183V21.643C77.7695 21.7201 77.7341 21.7916 77.6797 21.8475C77.6253 21.9033 77.5548 21.9406 77.478 21.954V21.955Z" fill="#736562"/>
<path d="M92.401 4.08501C91.895 9.91701 88.701 14.318 83.517 17.438C83.4629 17.4785 83.4009 17.5072 83.3351 17.5226C83.2693 17.5379 83.201 17.5394 83.1346 17.527C83.0681 17.5146 83.005 17.4885 82.9491 17.4505C82.8933 17.4125 82.8459 17.3633 82.81 17.306L82.043 16.117C82.0033 16.0707 81.9753 16.0156 81.9611 15.9564C81.9469 15.8971 81.9471 15.8353 81.9616 15.776C81.976 15.7168 82.0044 15.6619 82.0443 15.6158C82.0842 15.5697 82.1345 15.5338 82.191 15.511C86.568 12.881 89.038 9.403 89.809 5.291C89.961 4.691 89.764 4.55301 89.24 4.55301H83.115C82.915 4.55301 82.832 4.441 82.832 4.235V2.66701C82.832 2.48601 82.92 2.399 83.115 2.399H90.845C92.167 2.399 92.489 2.93701 92.401 4.08501ZM98.741 22.024H96.799C96.7584 22.0301 96.7169 22.0268 96.6777 22.0143C96.6386 22.0017 96.6029 21.9804 96.5733 21.9519C96.5437 21.9234 96.5211 21.8885 96.5072 21.8498C96.4933 21.8112 96.4884 21.7698 96.493 21.729V10.664H92.447C92.371 10.6667 92.2968 10.6404 92.2394 10.5905C92.1821 10.5405 92.1458 10.4707 92.138 10.395V8.79501C92.1437 8.71841 92.1792 8.64711 92.2371 8.59657C92.2949 8.54604 92.3703 8.52033 92.447 8.52501H96.489V0.998001C96.489 0.798001 96.603 0.711014 96.795 0.711014H98.737C98.929 0.711014 99.037 0.800001 99.037 0.998001V21.725C99.0421 21.7652 99.038 21.8061 99.025 21.8445C99.012 21.8829 98.9904 21.9179 98.9619 21.9467C98.9334 21.9755 98.8986 21.9974 98.8604 22.0108C98.8221 22.0242 98.7813 22.0287 98.741 22.024Z" fill="#736562"/>
<path d="M121.343 13.064H113.199V17.164C113.205 17.2056 113.202 17.248 113.189 17.2881C113.176 17.3282 113.155 17.3649 113.126 17.3955C113.097 17.4261 113.062 17.4497 113.022 17.4647C112.983 17.4797 112.941 17.4856 112.899 17.482H110.985C110.943 17.4866 110.9 17.4814 110.86 17.4669C110.82 17.4523 110.784 17.4288 110.754 17.3981C110.724 17.3674 110.702 17.3303 110.689 17.2897C110.676 17.2492 110.673 17.2062 110.679 17.164V13.064H102.179C102.094 13.0511 102.016 13.008 101.959 12.9425C101.903 12.8769 101.872 12.7934 101.872 12.707V11.247C101.87 11.2045 101.876 11.1619 101.89 11.1217C101.904 11.0815 101.926 11.0445 101.954 11.0129C101.983 10.9813 102.018 10.9556 102.056 10.9374C102.095 10.9193 102.136 10.9089 102.179 10.907H121.347C121.432 10.9188 121.511 10.9586 121.57 11.0202C121.63 11.0818 121.668 11.1616 121.677 11.247V12.707C121.667 12.7945 121.629 12.8766 121.569 12.9409C121.509 13.0052 121.43 13.0484 121.343 13.064ZM111.818 9.26402C107.701 9.26402 104.818 7.73601 104.818 5.15401C104.818 2.57201 107.698 1.02702 111.818 1.02702C115.91 1.02702 118.792 2.55701 118.792 5.15401C118.792 7.75101 115.91 9.26402 111.818 9.26402ZM118.946 21.48H106.492C105.168 21.48 104.821 21.054 104.821 19.888V15.125C104.826 15.0448 104.86 14.9692 104.917 14.9122C104.973 14.8552 105.049 14.8207 105.129 14.815H107.018C107.102 14.8169 107.181 14.8496 107.242 14.9068C107.303 14.9641 107.341 15.0417 107.348 15.125V18.964C107.348 19.251 107.46 19.322 107.748 19.322H118.948C119.027 19.319 119.104 19.3452 119.164 19.3956C119.225 19.446 119.265 19.517 119.276 19.595V21.212C119.274 21.394 119.118 21.481 118.945 21.481L118.946 21.48ZM111.818 3.09501C109.267 3.09501 107.462 3.97101 107.462 5.15501C107.462 6.37001 109.267 7.20301 111.818 7.20301C114.349 7.20301 116.149 6.37001 116.149 5.15501C116.149 3.97101 114.348 3.09501 111.818 3.09501Z" fill="#736562"/>
<mask id="mask0_1_40" style="mask-type:luminance" maskUnits="userSpaceOnUse" x="0" y="-1" width="53" height="25">
<path d="M50.543 0.428998C50.0703 0.321664 49.5837 0.234663 49.083 0.167996C47.6985 -0.0246672 46.296 -0.0521941 44.905 0.0859953C41.3229 0.430681 37.9395 1.89139 35.232 4.26201C34.5704 4.84644 33.9581 5.48425 33.401 6.169C33.225 6.388 33.052 6.614 32.888 6.841C31.2665 8.80644 29.2674 10.4269 27.009 11.6065C24.7505 12.7862 22.2785 13.5011 19.739 13.709C18.2541 13.8371 16.7595 13.7992 15.283 13.596C12.7424 13.2531 10.2952 12.4094 8.08301 11.114C8.08301 11.114 8.07601 11.114 8.07401 11.114C6.21279 10.0229 4.55931 8.61118 3.19 6.944C3.102 6.835 2.78298 6.53501 2.69598 6.42401C1.92457 5.64617 1.04238 4.9867 0.0780029 4.46701H0.0700073C0.0430073 4.46701 0.0250049 4.46699 0.00500488 4.47599C0.90317 7.64654 2.42786 10.6049 4.48898 13.176C4.78898 13.547 5.08901 13.907 5.40601 14.262C5.70601 14.6 6.02199 14.929 6.34399 15.254C10.6052 19.5034 16.1481 22.2301 22.115 23.012C25.3429 23.4591 28.6236 23.3509 31.815 22.692C35.9196 21.892 39.7775 20.1347 43.0751 17.5631C46.3727 14.9914 49.017 11.6779 50.793 7.89199C51.0658 7.3919 51.2812 6.86254 51.435 6.31401C51.9802 4.83217 52.3774 3.30004 52.621 1.74C52.655 1.516 52.687 1.293 52.716 1.07C52.0064 0.809237 51.2805 0.595107 50.543 0.428998Z" fill="white"/>
</mask>
<g mask="url(#mask0_1_40)">
<path d="M50.543 0.428998C50.0703 0.321664 49.5837 0.234663 49.083 0.167996C47.6985 -0.0246672 46.296 -0.0521941 44.905 0.0859953C41.3229 0.430681 37.9395 1.89139 35.232 4.26201C34.5704 4.84644 33.9581 5.48425 33.401 6.169C33.225 6.388 33.052 6.614 32.888 6.841C31.2665 8.80644 29.2674 10.4269 27.009 11.6065C24.7505 12.7862 22.2785 13.5011 19.739 13.709C18.2541 13.8371 16.7595 13.7992 15.283 13.596C12.7424 13.2531 10.2952 12.4094 8.08301 11.114C8.08301 11.114 8.07601 11.114 8.07401 11.114C6.21279 10.0229 4.55931 8.61118 3.19 6.944C3.102 6.835 2.78298 6.53501 2.69598 6.42401C1.92457 5.64617 1.04238 4.9867 0.0780029 4.46701H0.0700073C0.0430073 4.46701 0.0250049 4.46699 0.00500488 4.47599C0.90317 7.64654 2.42786 10.6049 4.48898 13.176C4.78898 13.547 5.08901 13.907 5.40601 14.262C5.70601 14.6 6.02199 14.929 6.34399 15.254C10.6052 19.5034 16.1481 22.2301 22.115 23.012C25.3429 23.4591 28.6236 23.3509 31.815 22.692C35.9196 21.892 39.7775 20.1347 43.0751 17.5631C46.3727 14.9914 49.017 11.6779 50.793 7.89199C51.0658 7.3919 51.2812 6.86254 51.435 6.31401C51.9802 4.83217 52.3774 3.30004 52.621 1.74C52.655 1.516 52.687 1.293 52.716 1.07C52.0064 0.809237 51.2805 0.595107 50.543 0.428998Z" fill="url(#paint0_linear_1_40)"/>
<path d="M50.543 0.428998C50.0704 0.321664 49.5837 0.234663 49.083 0.167996C47.6985 -0.0246672 46.296 -0.0521941 44.905 0.0859953C42.787 10.254 33.235 17.928 21.769 17.928C17.2423 17.9961 12.7912 16.7633 8.94455 14.3761C5.09789 11.9888 2.01737 8.54752 0.0690308 4.461C0.0420308 4.461 0.0240283 4.461 0.00402832 4.47C0.902194 7.64055 2.42692 10.5988 4.48804 13.17C4.78804 13.541 5.08803 13.901 5.40503 14.256C5.70503 14.594 6.02102 14.923 6.34302 15.248C10.6042 19.4974 16.1471 22.2241 22.114 23.006C25.3419 23.4531 28.6226 23.3449 31.814 22.686C35.9186 21.886 39.7765 20.1287 43.0741 17.5571C46.3717 14.9854 49.016 11.6719 50.792 7.886C51.0649 7.3859 51.2802 6.85653 51.434 6.308C51.9792 4.82616 52.3765 3.29404 52.62 1.73401C52.654 1.51001 52.686 1.28701 52.715 1.06401C52.0056 0.805315 51.2801 0.593187 50.543 0.428998Z" fill="url(#paint1_linear_1_40)"/>
<path d="M21.7701 17.927C33.2351 17.927 42.7871 10.252 44.9061 0.0850067C43.2594 4.27037 40.3749 7.85368 36.6378 10.3564C32.9008 12.859 28.4892 14.1619 23.9921 14.091C22.5661 14.0909 21.143 13.9624 19.7401 13.707C18.2551 13.8351 16.7606 13.7972 15.2841 13.594C12.7435 13.2511 10.2962 12.4074 8.08405 11.112C8.08405 11.112 8.07704 11.112 8.07504 11.112C6.21383 10.0209 4.56034 8.60919 3.19104 6.942C3.10304 6.833 2.78405 6.533 2.69705 6.422C1.92566 5.64414 1.04343 4.98466 0.0790405 4.465H0.0710449C2.02013 8.55035 5.10081 11.9905 8.9472 14.3768C12.7936 16.7631 17.2441 17.9952 21.7701 17.927Z" fill="url(#paint2_linear_1_40)"/>
<path d="M33.396 6.168C33.22 6.387 33.047 6.613 32.883 6.84C31.2615 8.80544 29.2624 10.4259 27.004 11.6055C24.7455 12.7852 22.2735 13.5001 19.734 13.708C21.1369 13.9634 22.56 14.0919 23.986 14.092C28.4824 14.1621 32.8932 12.8588 36.6295 10.3562C40.3657 7.85358 43.2496 4.27072 44.896 0.0859985C41.3146 0.431092 37.9319 1.89177 35.225 4.26201C34.5642 4.84621 33.9525 5.48367 33.396 6.168Z" fill="url(#paint3_linear_1_40)"/>
</g>
</g>
<defs>
<linearGradient id="paint0_linear_1_40" x1="-427.165" y1="8.77713" x2="-374.454" y2="8.77713" gradientUnits="userSpaceOnUse">
<stop stop-color="#FFEB07"/>
<stop offset="0.021" stop-color="#FFE105"/>
<stop offset="0.078" stop-color="#FFCF02"/>
<stop offset="0.136" stop-color="#FFC300"/>
<stop offset="0.198" stop-color="#FFC000"/>
<stop offset="0.498" stop-color="#F07B23"/>
<stop offset="0.751" stop-color="#E34D1E"/>
<stop offset="0.945" stop-color="#DB1E1F"/>
</linearGradient>
<linearGradient id="paint1_linear_1_40" x1="-410.878" y1="19.2029" x2="-407.149" y2="-13.9404" gradientUnits="userSpaceOnUse">
<stop stop-color="#E23423"/>
<stop offset="0.209" stop-color="#DF2D25"/>
<stop offset="0.492" stop-color="#D91C2B"/>
<stop offset="0.816" stop-color="#D00036"/>
<stop offset="0.821" stop-color="#D00037"/>
</linearGradient>
<linearGradient id="paint2_linear_1_40" x1="-382.192" y1="6.13435" x2="-427.027" y2="6.13435" gradientUnits="userSpaceOnUse">
<stop offset="0.118" stop-color="#E43E00"/>
<stop offset="0.161" stop-color="#E64700"/>
<stop offset="0.39" stop-color="#F07300"/>
<stop offset="0.594" stop-color="#F89400"/>
<stop offset="0.765" stop-color="#FDA700"/>
<stop offset="0.881" stop-color="#FFAF00"/>
</linearGradient>
<linearGradient id="paint3_linear_1_40" x1="-402.836" y1="13.3802" x2="-393.927" y2="-15.3787" gradientUnits="userSpaceOnUse">
<stop stop-color="#FFDA2D"/>
<stop offset="0.786" stop-color="#F89600"/>
</linearGradient>
<clipPath id="clip0_1_40">
<rect width="121.673" height="23.276" fill="white"/>
</clipPath>
</defs>
</svg>
